<?xml version="1.0" standalone="no"?>
<!DOCTYPE svg PUBLIC "-//W3C//DTD SVG 20010904//EN"
 "http://www.w3.org/TR/2001/REC-SVG-20010904/DTD/svg10.dtd">
<svg version="1.0" xmlns="http://www.w3.org/2000/svg"
 width="2445.000000pt" height="735.000000pt" viewBox="0 0 2445.000000 735.000000"
 preserveAspectRatio="xMidYMid meet">

<g transform="translate(0.000000,735.000000) scale(0.100000,-0.100000)"
fill="#000000" stroke="none">
<path d="M4405 6791 c-99 -26 -3560 -1646 -3620 -1696 -89 -72 -127 -184 -101
-295 28 -119 98 -187 226 -220 41 -11 108 -20 149 -20 l73 0 -3 -752 c-3 -823
-3 -833 54 -916 16 -24 46 -56 68 -71 87 -64 -126 -59 3228 -65 2771 -4 3060
-3 3125 11 123 28 195 95 228 212 17 61 18 122 18 823 l0 758 68 0 c87 0 205
31 256 67 154 108 160 346 12 468 -60 49 -3543 1675 -3638 1699 -37 9 -68 16
-70 15 -2 0 -34 -8 -73 -18z m1427 -1452 c34 -66 55 -82 138 -110 101 -34 167
-70 270 -150 139 -108 180 -150 180 -186 0 -27 -6 -32 -92 -70 -127 -56 -169
-69 -315 -98 -251 -50 -284 -63 -382 -147 l-61 -53 27 -12 c16 -7 51 -12 79
-13 62 0 106 -14 121 -39 10 -17 9 -20 -13 -25 -21 -6 -23 -9 -13 -27 10 -20
9 -21 -30 -17 -39 3 -52 -4 -31 -17 6 -3 10 -11 10 -17 0 -14 -55 -6 -173 25
-75 20 -103 24 -123 16 -25 -9 -26 -11 -10 -28 9 -10 57 -35 106 -56 57 -23
99 -47 115 -67 32 -38 31 -46 -2 -50 -20 -2 -27 -8 -25 -20 2 -14 -4 -18 -28
-18 -27 0 -30 -3 -30 -30 0 -16 -2 -30 -5 -30 -3 0 -33 22 -67 50 -77 62 -198
122 -302 151 -69 18 -87 20 -134 10 -31 -6 -98 -11 -151 -11 l-96 -1 -65 -58
c-66 -61 -76 -85 -22 -57 17 9 62 21 101 28 69 12 71 11 96 -12 71 -67 111
-170 65 -170 -16 0 -20 -7 -20 -30 0 -35 2 -34 -41 -16 -76 31 -79 31 -79 -7
0 -18 -3 -36 -6 -40 -3 -3 -25 9 -49 28 -76 57 -130 70 -295 69 -80 0 -206 -5
-282 -10 l-136 -10 -87 -53 c-98 -60 -148 -79 -325 -123 -113 -28 -146 -32
-340 -38 -216 -7 -419 -33 -506 -63 -101 -36 -193 -92 -409 -250 -206 -150
-231 -162 -370 -162 -104 0 -114 2 -176 32 -93 46 -119 69 -119 104 0 27 2 29
40 29 25 0 52 -9 76 -25 46 -32 124 -55 182 -55 79 0 122 20 197 91 122 115
341 255 507 323 109 44 180 59 433 91 226 28 531 85 592 110 50 21 90 61 98
96 4 16 -1 48 -10 76 -25 70 -32 296 -12 389 34 160 129 326 235 410 79 62
215 127 357 170 101 30 144 37 275 46 222 14 358 6 443 -26 37 -14 82 -26 99
-26 47 0 105 38 141 94 85 134 133 158 220 111 29 -15 62 -37 74 -48 22 -20
23 -20 43 -2 11 10 30 34 41 52 12 19 26 32 32 30 6 -2 24 -28 39 -58z"/>
<path d="M22848 6194 c-106 -25 -156 -47 -233 -102 -101 -71 -190 -174 -244
-280 -21 -41 -62 -191 -76 -279 l-6 -41 -83 39 c-84 39 -273 90 -401 109 -38
5 -277 10 -530 10 -417 0 -467 -2 -532 -19 -171 -44 -243 -166 -243 -409 l0
-97 -32 40 c-153 189 -379 361 -570 435 -105 40 -301 87 -428 101 -135 16
-284 0 -484 -50 -218 -55 -354 -122 -532 -263 -34 -26 -64 -48 -67 -48 -2 0
-10 28 -17 63 -24 120 -98 195 -223 228 -67 17 -124 19 -887 19 -769 0 -819
-1 -888 -19 -83 -22 -138 -55 -174 -107 l-25 -34 -54 39 c-87 62 -153 90 -293
127 -175 45 -316 60 -449 46 -164 -18 -365 -70 -467 -122 -126 -64 -272 -191
-355 -309 -28 -39 -52 -70 -55 -70 -3 0 -29 32 -59 71 -55 72 -166 167 -265
227 -72 43 -160 75 -316 113 l-125 31 -499 4 c-444 4 -506 3 -570 -13 -39 -9
-87 -26 -107 -36 -37 -20 -37 -20 -65 0 -16 11 -61 28 -100 37 -62 14 -120 16
-425 13 l-354 -4 -140 -37 c-159 -42 -232 -75 -328 -147 -116 -88 -209 -200
-265 -318 l-28 -59 -23 32 c-36 53 -157 172 -236 231 -154 116 -293 181 -500
233 -257 64 -254 64 -829 68 -470 4 -536 3 -600 -12 -135 -32 -205 -101 -237
-236 -18 -77 -19 -130 -19 -1192 0 -1067 1 -1115 20 -1187 33 -128 101 -198
220 -226 51 -12 139 -15 425 -15 198 1 414 -3 480 -8 203 -14 412 13 640 85
217 68 475 251 614 437 l44 57 33 -67 c78 -156 231 -308 388 -386 71 -35 234
-82 370 -106 34 -6 198 -11 384 -11 344 0 415 8 470 51 24 19 33 18 62 -7 41
-35 137 -44 480 -44 367 0 432 8 495 56 l34 25 38 -25 c81 -53 129 -57 541
-52 453 6 354 6 792 0 328 -4 372 -3 430 13 61 17 69 17 130 1 91 -23 711 -26
808 -3 110 26 182 100 213 218 17 67 19 119 19 725 l0 652 45 0 45 0 0 -652
c0 -606 2 -658 19 -725 31 -118 103 -192 213 -218 92 -21 705 -21 797 0 109
26 181 100 212 218 17 65 19 120 20 587 1 348 4 493 10 447 13 -100 71 -329
108 -423 59 -152 186 -340 326 -479 186 -187 401 -311 640 -369 194 -48 288
-60 424 -53 182 8 443 73 586 144 150 76 329 216 446 351 l64 73 6 -118 c10
-185 45 -273 135 -336 71 -50 125 -56 498 -57 368 0 427 7 491 56 39 30 41 30
81 -1 63 -48 127 -55 513 -55 387 0 436 6 510 58 54 39 97 107 115 182 21 93
10 131 -160 551 -79 196 -144 361 -144 366 0 5 23 40 51 78 74 103 115 196
150 341 33 137 41 254 26 370 l-8 61 98 -23 c127 -31 209 -30 335 2 147 37
251 95 348 197 49 50 121 156 145 212 25 61 65 247 65 307 0 55 -39 234 -66
303 -38 97 -144 225 -249 300 -87 62 -133 82 -247 110 -128 31 -211 31 -340
-1z m311 -243 c344 -107 455 -563 199 -819 -96 -96 -205 -142 -338 -142 -360
0 -585 381 -423 717 34 72 139 179 208 213 110 53 244 65 354 31z m-7431 -571
c303 -73 463 -284 501 -665 7 -68 11 -391 11 -872 l0 -763 -330 0 -330 0 0
745 c0 501 -4 761 -11 795 -6 28 -21 63 -34 78 -21 24 -30 27 -88 27 -76 0
-98 -15 -131 -85 -17 -39 -21 -70 -24 -232 l-4 -188 96 0 96 0 0 -300 0 -299
-92 -3 -93 -3 -3 -267 -2 -268 -326 0 -325 0 3 833 c3 824 4 833 26 912 85
308 309 516 607 564 118 19 126 20 250 15 71 -2 154 -12 203 -24z m3769 19
c252 -28 483 -146 669 -341 227 -240 334 -508 334 -842 0 -322 -91 -573 -293
-804 -156 -179 -347 -298 -576 -360 -86 -23 -115 -25 -276 -26 -132 0 -199 5
-250 17 -448 103 -801 469 -892 924 -24 121 -24 375 0 496 48 239 162 443 348
623 252 243 579 353 936 313z m-9726 -60 c544 -55 901 -339 1020 -812 30 -117
37 -376 16 -514 -50 -312 -208 -573 -451 -745 -218 -153 -446 -210 -803 -200
l-83 2 0 333 0 334 133 6 c325 15 481 122 532 364 38 179 -6 356 -113 454
-101 94 -235 129 -488 129 l-164 0 0 -805 0 -805 -330 0 -330 0 0 1135 0 1135
479 0 c264 0 525 -5 582 -11z m2569 -319 l0 -330 -240 0 c-258 0 -292 -5 -324
-51 -20 -29 -21 -81 -1 -119 22 -43 64 -50 308 -50 l217 0 0 -255 0 -255 -227
0 c-246 0 -292 -6 -329 -41 -19 -18 -24 -33 -24 -74 0 -62 19 -91 68 -105 21
-5 148 -10 295 -10 l257 0 0 -326 0 -326 -357 5 c-401 4 -420 7 -572 79 -150
71 -256 204 -308 383 -15 53 -18 126 -21 629 -3 593 0 653 39 770 71 211 261
361 502 396 29 4 202 8 385 9 l332 1 0 -330z m1375 320 c164 -24 299 -78 407
-165 103 -83 197 -228 234 -361 25 -90 30 -286 10 -376 -30 -136 -114 -278
-219 -375 l-55 -50 188 -466 188 -467 -346 0 -347 0 -157 365 -158 364 0 296
0 295 63 0 c79 0 143 30 171 80 29 49 28 139 0 177 -41 55 -78 68 -206 72
l-118 3 0 -826 0 -826 -330 0 -330 0 0 1135 0 1135 468 0 c257 0 499 -5 537
-10z m4375 -320 l0 -330 -250 0 -250 0 0 -805 0 -805 -330 0 -330 0 0 805 0
805 -250 0 -250 0 0 330 0 330 830 0 830 0 0 -330z m3736 316 c262 -39 456
-169 563 -376 61 -117 83 -210 84 -355 1 -211 -55 -353 -200 -505 l-85 -90
182 -451 c100 -248 184 -457 187 -465 4 -12 -46 -14 -342 -12 l-347 3 -159
365 -158 365 2 290 2 290 70 6 c81 7 112 18 142 50 45 49 56 133 26 196 -27
59 -93 83 -225 83 l-108 0 0 -825 0 -825 -330 0 -330 0 0 1135 0 1135 468 0
c344 0 491 -4 558 -14z m-12036 -974 c46 -22 60 -53 60 -132 0 -91 -25 -142
-79 -163 -23 -10 -55 -17 -71 -17 l-30 0 0 171 0 172 43 -7 c23 -4 58 -15 77
-24z m8107 -24 c-2 -13 -4 -5 -4 17 -1 22 1 32 4 23 2 -10 2 -28 0 -40z"/>
<path d="M22903 5852 c-223 -80 -325 -341 -216 -556 34 -67 112 -142 181 -174
50 -24 69 -27 157 -27 95 0 103 2 163 34 112 61 184 161 205 286 29 171 -57
341 -210 417 -84 41 -198 49 -280 20z m246 -130 c101 -54 92 -204 -14 -257
l-40 -21 27 -22 c27 -23 118 -177 118 -201 0 -7 -25 -11 -73 -11 l-73 0 -36
73 c-43 87 -83 137 -109 137 -17 0 -19 -8 -19 -105 l0 -105 -65 0 -65 0 0 265
0 265 158 0 c133 0 163 -3 191 -18z"/>
<path d="M22937 5643 c-4 -3 -7 -33 -7 -65 l0 -58 40 0 c22 0 56 7 75 14 31
13 35 19 35 51 0 32 -4 38 -35 51 -36 15 -97 19 -108 7z"/>
<path d="M19238 4719 c-156 -37 -301 -184 -352 -358 -20 -68 -21 -217 -1 -290
36 -137 147 -275 266 -331 351 -164 730 148 671 553 -22 150 -121 304 -240
374 -95 56 -237 78 -344 52z m214 -326 c55 -50 78 -103 78 -181 0 -137 -95
-234 -211 -216 -46 8 -103 54 -129 105 -15 28 -20 58 -20 117 0 70 3 83 30
125 40 64 81 87 152 87 53 0 62 -3 100 -37z"/>
<path d="M3640 2494 c-64 -16 -111 -35 -146 -59 l-51 -35 -59 30 c-32 16 -102
39 -154 51 -84 18 -117 20 -285 15 -245 -7 -220 -7 -373 0 -117 5 -145 3 -235
-17 -82 -19 -114 -32 -167 -67 -50 -34 -68 -41 -80 -33 -45 33 -124 66 -209
89 -84 22 -121 26 -301 30 -169 3 -216 1 -269 -13 -115 -30 -165 -80 -194
-197 -25 -100 -25 -826 0 -926 28 -115 79 -167 190 -196 97 -25 437 -22 556 6
91 20 165 51 219 91 l28 21 52 -36 c76 -51 82 -54 196 -78 88 -19 121 -21 225
-16 67 4 140 6 162 5 22 -2 100 -2 173 -2 183 1 219 1 542 0 157 -1 296 0 310
0 14 1 86 0 160 -3 114 -4 146 -2 203 14 66 19 68 19 134 1 118 -33 369 -19
420 22 7 6 13 6 17 1 3 -6 36 -17 73 -26 60 -14 146 -15 698 -12 347 2 635 4
640 4 6 1 69 -1 140 -4 143 -6 232 9 286 48 l28 21 58 -26 c64 -28 232 -67
290 -67 56 0 244 45 293 70 23 12 60 35 83 51 l40 29 37 -30 c50 -40 89 -55
199 -80 114 -25 275 -27 367 -4 55 14 74 25 114 64 39 40 50 59 64 114 9 36
16 79 16 96 0 16 1 30 3 30 1 0 27 -7 57 -15 81 -22 267 -19 358 4 l72 19 0
-24 c0 -45 33 -158 56 -192 60 -90 141 -112 414 -112 166 1 217 4 288 21 95
22 159 47 214 85 l37 26 43 -30 c67 -46 96 -58 193 -80 88 -21 107 -21 720
-17 347 3 650 4 675 3 57 -2 297 -3 330 -1 108 4 408 -7 465 -17 66 -12 77
-11 175 14 80 19 118 35 160 64 l55 39 38 -28 c26 -19 74 -36 150 -54 102 -25
123 -26 242 -21 159 8 151 8 310 0 97 -4 144 -2 185 8 46 12 63 12 105 1 109
-28 370 -11 435 29 13 9 27 7 56 -4 53 -21 225 -58 271 -58 57 0 244 45 294
71 24 12 61 35 82 51 l37 30 39 -31 c51 -41 90 -56 200 -81 114 -25 275 -27
367 -4 55 14 74 25 114 64 39 40 50 59 64 114 9 36 16 79 16 96 0 16 1 30 3
30 1 0 27 -7 57 -15 80 -21 267 -19 356 4 l71 18 6 -51 c10 -91 34 -151 78
-195 66 -65 107 -74 364 -78 196 -3 229 -1 309 18 106 24 144 39 208 80 l47
31 43 -30 c67 -46 97 -58 193 -80 87 -21 108 -21 720 -17 347 2 648 4 670 3
22 -1 100 -1 173 -1 72 0 148 0 167 0 19 0 95 0 168 0 72 0 150 0 172 2 22 1
99 -1 170 -5 193 -9 284 20 346 110 l22 33 63 -48 c55 -41 76 -50 175 -74 104
-25 125 -26 244 -21 159 8 151 8 310 0 97 -4 144 -2 185 8 46 12 63 12 105 1
109 -28 370 -11 435 29 13 9 27 7 56 -4 53 -21 225 -58 271 -58 57 0 244 45
294 71 24 12 61 35 82 51 l37 30 39 -31 c51 -41 90 -56 200 -81 114 -25 275
-27 367 -4 55 14 74 25 114 65 67 67 84 138 77 326 -7 175 -7 361 0 536 7 188
-10 259 -77 326 -63 63 -130 81 -297 81 -155 0 -290 -31 -367 -84 -29 -20 -55
-36 -58 -36 -3 0 -35 20 -71 44 -53 35 -87 49 -174 70 -60 14 -135 26 -167 26
-57 0 -178 -26 -268 -57 -34 -12 -50 -14 -60 -6 -48 40 -293 57 -413 28 -53
-12 -67 -12 -120 1 -46 12 -90 14 -190 10 -157 -7 -147 -7 -320 0 -137 6 -202
-3 -350 -47 -5 -2 -24 5 -42 14 -42 22 -192 57 -246 57 -76 0 -227 -47 -287
-89 l-55 -38 -55 39 c-64 45 -210 88 -300 88 -60 0 -217 -37 -266 -63 -27 -14
-34 -14 -43 -3 -6 8 -40 21 -74 29 -53 13 -155 16 -672 16 -584 0 -614 0 -700
-21 -100 -23 -132 -37 -189 -81 -31 -25 -41 -28 -55 -19 -48 34 -123 66 -214
90 -95 25 -116 27 -322 27 -261 0 -307 -9 -374 -76 -52 -52 -72 -114 -78 -241
-3 -54 -8 -98 -10 -98 -3 0 -33 7 -66 16 -48 12 -95 15 -212 11 -82 -3 -162
-8 -177 -12 l-28 -7 0 76 c0 42 -7 106 -16 142 -14 55 -25 74 -64 114 -63 62
-131 80 -297 80 -155 0 -290 -31 -367 -84 -29 -20 -55 -36 -58 -36 -3 0 -35
20 -71 44 -53 35 -87 49 -174 70 -60 14 -135 26 -165 26 -59 0 -204 -31 -271
-57 -30 -12 -44 -14 -57 -5 -66 41 -309 57 -420 27 -48 -13 -61 -13 -115 1
-47 12 -89 15 -190 10 -158 -7 -149 -7 -316 0 -120 5 -149 3 -233 -16 -67 -16
-100 -19 -108 -12 -18 14 -181 52 -225 52 -43 0 -186 -36 -227 -57 -17 -9 -48
-29 -68 -45 l-37 -29 -59 41 c-67 47 -210 90 -302 90 -60 0 -217 -37 -266 -63
-27 -14 -34 -14 -43 -3 -6 8 -40 21 -74 29 -53 13 -155 16 -672 16 -584 0
-614 0 -700 -21 -100 -23 -132 -37 -189 -81 -31 -25 -41 -28 -55 -19 -47 34
-123 66 -209 89 -85 22 -123 26 -302 30 -170 4 -216 2 -269 -12 -75 -19 -124
-50 -155 -97 -31 -45 -56 -152 -56 -238 0 -38 -3 -70 -6 -70 -3 0 -34 7 -67
16 -48 12 -95 15 -212 11 -82 -3 -162 -8 -177 -12 l-28 -7 0 76 c0 42 -7 106
-16 142 -14 55 -25 74 -64 114 -63 62 -131 80 -297 80 -154 0 -292 -33 -370
-86 l-53 -36 -70 45 c-56 36 -94 51 -179 71 -135 33 -196 33 -323 0 -108 -27
-138 -39 -206 -87 l-44 -29 -41 31 c-67 50 -107 68 -201 90 -114 27 -168 26
-294 -4 -98 -24 -107 -24 -160 -10 -82 21 -1632 21 -1711 0 -48 -12 -59 -12
-148 11 -118 30 -190 29 -313 -2z m312 -257 c26 -15 57 -41 69 -58 48 -68 52
-103 57 -451 l4 -328 -121 0 -120 0 -3 296 c-3 279 -4 296 -22 310 -25 18 -29
18 -56 -4 -19 -15 -24 -31 -28 -95 l-5 -77 37 0 36 0 0 -115 0 -115 -35 0 -35
0 0 -100 0 -100 -121 0 -121 0 4 318 c4 298 5 320 26 373 33 82 97 142 182
170 14 5 66 7 115 6 78 -2 98 -7 137 -30z m2284 18 c59 -17 109 -63 138 -125
20 -42 21 -64 24 -387 l3 -343 -121 0 -120 0 0 294 c0 254 -2 297 -16 310 -45
45 -84 -6 -84 -108 l0 -66 35 0 35 0 0 -115 0 -115 -35 0 -35 0 0 -100 0 -100
-120 0 -120 0 0 298 c0 330 6 379 60 457 31 45 78 79 139 101 49 18 156 17
217 -1z m857 -23 c112 -55 198 -169 231 -304 8 -33 4 -34 -139 -43 l-110 -6
-25 48 c-33 63 -98 98 -161 88 -44 -8 -102 -51 -123 -94 -64 -127 16 -281 146
-281 86 0 136 42 159 134 l12 48 121 -7 c66 -4 123 -9 125 -11 9 -8 -31 -155
-57 -206 -39 -79 -124 -160 -197 -187 -217 -82 -439 8 -538 217 -31 65 -32 72
-32 197 0 125 1 132 31 195 82 170 216 253 400 247 79 -2 100 -7 157 -35z
m4653 10 c49 -25 89 -70 118 -132 20 -42 21 -65 24 -377 l3 -333 -120 0 -121
0 0 290 c0 277 -1 291 -20 310 -11 11 -24 20 -30 20 -5 0 -19 -9 -30 -20 -19
-19 -20 -33 -20 -310 l0 -290 -121 0 -120 0 3 328 c3 351 2 342 60 429 29 43
75 77 137 100 54 20 185 12 237 -15z m638 18 c26 -9 26 -10 26 -131 l0 -121
-31 6 c-24 4 -35 1 -55 -19 -13 -13 -24 -32 -24 -41 0 -9 19 -58 42 -108 39
-83 43 -98 43 -171 0 -93 -22 -148 -83 -209 -60 -61 -106 -80 -192 -80 -119
-1 -120 1 -120 148 l0 124 28 -10 c39 -15 80 -3 94 27 10 21 6 36 -26 104 -50
106 -63 190 -42 271 25 99 101 185 182 210 40 12 128 12 158 0z m2018 -22 c67
-31 147 -102 182 -162 13 -23 34 -70 46 -105 24 -74 20 -81 -46 -81 -23 0 -74
-3 -115 -6 l-74 -6 -25 48 c-31 59 -76 88 -140 88 -58 0 -108 -30 -137 -82
-48 -84 -38 -176 26 -245 35 -37 43 -41 98 -45 97 -7 148 33 175 136 l11 44
121 -7 c66 -4 123 -9 125 -11 8 -7 -30 -147 -53 -197 -51 -107 -141 -183 -251
-212 -220 -57 -432 59 -505 276 -19 54 -21 81 -18 174 3 98 7 117 34 175 55
115 143 195 253 232 84 27 217 21 293 -14z m4668 1 c50 -27 103 -92 121 -147
9 -25 14 -142 16 -364 l4 -328 -120 0 -121 0 0 290 c0 277 -1 291 -20 310 -11
11 -24 20 -30 20 -5 0 -19 -9 -30 -20 -19 -19 -20 -33 -20 -310 l0 -290 -121
0 -120 0 3 328 3 328 30 59 c33 66 104 127 164 144 20 6 72 9 116 7 64 -2 90
-7 125 -27z m676 7 c50 -23 124 -87 124 -106 0 -9 -161 -141 -182 -149 -5 -2
-16 6 -24 18 -10 13 -26 21 -45 21 -37 0 -49 -27 -49 -116 l0 -64 40 0 40 0 0
-115 0 -115 -40 0 -40 0 0 -110 0 -110 -121 0 -120 0 3 313 c4 356 7 370 85
457 67 75 118 98 218 99 43 1 74 -6 111 -23z m2056 -8 c67 -31 147 -102 182
-162 13 -23 34 -70 46 -105 24 -74 20 -81 -46 -81 -23 0 -74 -3 -115 -6 l-75
-7 -19 42 c-49 110 -178 130 -258 41 -77 -85 -72 -204 12 -284 25 -24 42 -30
89 -34 96 -7 147 34 174 136 l11 44 121 -7 c66 -4 123 -9 125 -11 8 -7 -30
-148 -55 -202 -38 -79 -126 -164 -201 -192 -215 -81 -438 10 -536 218 -31 65
-32 72 -32 197 0 125 1 132 31 195 56 115 143 195 253 232 84 27 217 21 293
-14z m-20001 -2 c211 -45 331 -210 316 -436 -7 -105 -35 -185 -91 -253 -82
-102 -181 -147 -318 -147 l-78 0 0 124 0 123 60 6 c119 10 172 58 178 161 8
127 -44 177 -190 184 l-88 4 0 -301 0 -301 -120 0 -120 0 0 425 0 425 193 0
c126 0 215 -5 258 -14z m869 -111 l0 -125 -89 0 c-106 0 -121 -4 -121 -36 0
-33 28 -44 114 -44 l76 0 0 -95 0 -95 -86 0 c-91 0 -124 -10 -124 -38 0 -35
21 -42 127 -42 l103 0 0 -125 0 -125 -115 0 c-62 0 -137 5 -164 11 -64 13
-124 57 -153 111 -22 41 -23 56 -26 283 -4 284 1 309 68 376 58 58 90 67 258
68 l132 1 0 -125z m582 96 c97 -47 147 -134 148 -252 0 -82 -26 -153 -74 -198
l-24 -22 48 -122 c26 -67 57 -146 69 -174 l21 -53 -128 0 -128 0 -57 138 -57
137 0 106 0 107 35 6 c37 7 55 30 55 69 0 33 -18 46 -74 53 l-46 7 0 -312 0
-311 -120 0 -120 0 0 426 0 426 203 -4 c187 -3 205 -5 249 -27z m1498 -96 l0
-125 -90 0 -90 0 0 -300 0 -300 -120 0 -120 0 0 300 0 300 -95 0 -95 0 0 125
0 125 305 0 305 0 0 -125z m320 -300 l0 -425 -120 0 -120 0 0 425 0 425 120 0
120 0 0 -425z m690 417 c0 -4 -54 -138 -119 -297 l-119 -290 119 -3 119 -3 0
-124 0 -125 -300 0 c-165 0 -300 3 -300 8 0 4 54 138 119 297 l119 290 -129 3
-129 3 0 124 0 125 310 0 c171 0 310 -4 310 -8z m2120 -117 l0 -125 -93 0
c-96 0 -117 -8 -117 -42 0 -28 33 -38 119 -38 l81 0 0 -95 0 -95 -94 0 c-73 0
-98 -4 -110 -16 -19 -18 -19 -20 -6 -45 10 -17 22 -19 115 -19 l105 0 0 -126
0 -126 -142 4 c-136 3 -146 5 -197 33 -109 60 -124 112 -119 421 3 245 6 262
62 322 50 56 102 70 269 71 l127 1 0 -125z m1495 96 c153 -55 244 -175 261
-344 19 -189 -74 -367 -231 -442 -50 -24 -76 -30 -157 -33 l-98 -4 0 124 0
125 60 6 c33 3 77 14 98 24 69 35 102 146 68 226 -29 68 -88 97 -197 97 l-69
0 0 -300 0 -300 -120 0 -120 0 0 426 0 426 223 -4 c196 -5 229 -8 282 -27z
m815 -96 l0 -125 -94 0 c-73 0 -98 -4 -110 -16 -9 -8 -16 -19 -16 -24 0 -5 7
-16 16 -24 12 -12 36 -16 100 -16 l84 0 0 -95 0 -95 -93 0 c-98 0 -117 -7
-117 -46 0 -30 16 -34 131 -34 l99 0 0 -126 0 -126 -142 4 c-163 4 -214 20
-267 85 -48 58 -53 95 -49 363 3 270 4 275 70 338 48 48 102 60 256 61 l132 1
0 -125z m651 78 c-11 -27 -63 -154 -116 -283 -54 -129 -99 -243 -102 -252 -5
-16 5 -18 116 -18 l121 0 0 -125 0 -125 -305 0 -305 0 19 48 c10 26 64 158
120 294 56 136 101 249 101 252 0 3 -56 6 -125 6 l-125 0 0 125 0 125 310 0
310 0 -19 -47z m329 -378 l0 -425 -120 0 -120 0 0 425 0 425 120 0 120 0 0
-425z m1790 300 l0 -125 -93 0 c-96 0 -117 -8 -117 -42 0 -28 33 -38 119 -38
l81 0 0 -95 0 -95 -92 0 c-51 0 -99 -4 -106 -9 -8 -5 -12 -21 -10 -37 l3 -29
108 -3 107 -3 0 -125 0 -126 -137 4 c-158 5 -206 20 -259 80 -55 62 -59 89
-59 353 0 233 1 241 24 288 48 97 116 125 304 126 l127 1 0 -125z m370 -300
l0 -425 -120 0 -120 0 0 425 0 425 120 0 120 0 0 -425z m433 373 c-17 -29 -64
-116 -106 -194 l-77 -141 104 -229 103 -229 -125 -3 c-69 -1 -131 -1 -137 2
-6 2 -51 108 -100 235 l-88 232 20 37 c11 20 57 106 102 190 l82 152 126 0
125 0 -29 -52z m1437 -73 l0 -125 -93 0 c-96 0 -117 -8 -117 -42 0 -28 33 -38
119 -38 l81 0 0 -95 0 -95 -94 0 c-95 0 -126 -11 -126 -44 0 -29 25 -36 127
-36 l103 0 0 -126 0 -126 -142 4 c-136 3 -146 5 -196 33 -108 59 -122 105
-122 394 0 226 6 267 43 321 53 79 111 99 285 100 l132 0 0 -125z m1492 97
c116 -42 196 -119 239 -230 30 -76 32 -231 5 -312 -24 -69 -77 -151 -125 -191
-70 -58 -136 -82 -243 -87 l-98 -5 0 125 0 125 60 6 c33 3 77 14 98 24 69 35
102 146 68 226 -29 68 -88 97 -197 97 l-69 0 0 -300 0 -300 -120 0 -120 0 0
426 0 426 223 -4 c193 -4 230 -8 279 -26z m818 -97 l0 -125 -94 0 c-73 0 -98
-4 -110 -16 -9 -8 -16 -19 -16 -24 0 -5 7 -16 16 -24 12 -12 36 -16 100 -16
l84 0 0 -95 0 -95 -93 0 c-98 0 -117 -7 -117 -46 0 -30 16 -34 131 -34 l99 0
0 -126 0 -126 -142 4 c-162 4 -214 20 -267 84 -46 57 -51 91 -51 351 0 235 0
240 25 289 48 97 111 122 303 123 l132 1 0 -125z m651 78 c-11 -27 -65 -158
-120 -293 -56 -134 -101 -248 -101 -252 0 -5 52 -8 115 -8 l115 0 0 -125 0
-125 -301 0 c-237 0 -300 3 -296 13 67 162 237 580 237 583 0 2 -56 4 -125 4
l-125 0 0 125 0 125 310 0 310 0 -19 -47z m329 -378 l0 -425 -120 0 -120 0 0
425 0 425 120 0 120 0 0 -425z m1870 300 l0 -125 -93 0 c-96 0 -117 -8 -117
-42 0 -28 33 -38 119 -38 l81 0 0 -95 0 -95 -92 0 c-51 0 -99 -4 -106 -9 -8
-5 -12 -21 -10 -37 l3 -29 108 -3 107 -3 0 -125 0 -126 -137 4 c-158 5 -206
20 -259 80 -54 62 -59 90 -59 338 0 261 8 303 66 361 53 53 108 67 262 68
l127 1 0 -125z m380 -62 l0 -188 101 188 100 187 126 0 125 0 -29 -52 c-17
-29 -64 -116 -106 -194 l-77 -140 104 -230 104 -229 -126 -3 c-69 -1 -131 -1
-137 2 -6 2 -49 103 -96 225 l-84 221 -3 -225 -2 -225 -120 0 -120 0 0 425 0
425 120 0 120 0 0 -187z m1860 62 l0 -125 -93 0 c-96 0 -117 -8 -117 -42 0
-28 33 -38 119 -38 l81 0 0 -95 0 -95 -94 0 c-95 0 -126 -11 -126 -44 0 -29
25 -36 127 -36 l103 0 0 -126 0 -126 -142 4 c-136 3 -146 5 -197 33 -109 60
-124 112 -119 421 3 245 6 262 62 322 51 57 101 70 264 71 l132 1 0 -125z
m-14100 -350 l0 -85 -135 0 -135 0 0 85 0 85 135 0 135 0 0 -85z m7320 0 l0
-85 -135 0 -135 0 0 85 0 85 135 0 135 0 0 -85z"/>
</g>
</svg>
